<svg xmlns="http://www.w3.org/2000/svg" width="100.453" height="125.796" viewBox="0 0 100.453 125.796"><defs><style>.a{fill:#b5f2ff;}.a,.b,.c{fill-rule:evenodd;}.b{fill:#00d8ff;}.d{fill:none;stroke:#000;stroke-linecap:round;stroke-width:3px;}</style></defs><g transform="translate(24.428 24.546)"><path class="a" d="M10,107.295H61.5l20.57-20.57V10H10Zm0,0" transform="translate(-8.022 -8.022)"/><path class="b" d="M270.426,418.551V397.98H291Zm0,0" transform="translate(-216.948 -319.278)"/><path class="c" d="M1.978,79.5a1.977,1.977,0,0,0,1.978-1.978V3.955H72.071V7.911a1.978,1.978,0,0,0,3.955,0V1.978A1.977,1.977,0,0,0,74.048,0H1.978A1.977,1.977,0,0,0,0,1.978V77.519A1.977,1.977,0,0,0,1.978,79.5Zm0,0"/><path class="c" d="M74.048,110a1.977,1.977,0,0,0-1.978,1.978v52.993H53.478a1.977,1.977,0,0,0-1.978,1.978v18.593H3.955v-3.956a1.978,1.978,0,0,0-3.955,0v5.933A1.977,1.977,0,0,0,1.978,189.5h51.5l.031,0c.054,0,.108,0,.162-.008.033,0,.066-.01.1-.015s.063-.008.093-.014.066-.016.1-.024.059-.014.089-.022.06-.022.09-.032.062-.02.092-.032.053-.025.08-.038.065-.029.1-.045.049-.029.073-.043.063-.036.093-.056.055-.04.082-.06.051-.036.075-.056a1.675,1.675,0,0,0,.146-.132l20.57-20.57a1.9,1.9,0,0,0,.171-.2c.014-.017.027-.035.039-.053a2.048,2.048,0,0,0,.137-.217l.006-.014a1.946,1.946,0,0,0,.1-.222c.008-.02.015-.041.022-.062a2.053,2.053,0,0,0,.068-.245.015.015,0,0,1,0-.005,2.028,2.028,0,0,0,.03-.248c0-.022,0-.045,0-.067s0-.044,0-.066V111.981A1.977,1.977,0,0,0,74.048,110ZM55.455,182.749V168.93H69.273Zm0,0" transform="translate(0 -88.25)"/><path class="c" d="M242.267,105.575a1.977,1.977,0,0,0-2.8,0L235,110.044l-4.47-4.469a1.977,1.977,0,1,0-2.8,2.8l4.469,4.469-4.469,4.47a1.977,1.977,0,1,0,2.8,2.8l4.47-4.469,4.469,4.469a1.977,1.977,0,0,0,2.8-2.8l-4.469-4.47,4.469-4.469A1.977,1.977,0,0,0,242.267,105.575Zm0,0" transform="translate(-182.235 -84.233)"/><path class="c" d="M81.165,267.3c4.945-3.984,12.009-6.27,19.38-6.27s14.435,2.286,19.38,6.27a1.978,1.978,0,1,0,2.481-3.08c-5.635-4.541-13.6-7.145-21.861-7.145s-16.226,2.6-21.861,7.145a1.978,1.978,0,1,0,2.481,3.08Zm0,0" transform="translate(-62.532 -206.24)"/><path class="c" d="M78.529,120.1a1.978,1.978,0,0,0,2.8,0l4.469-4.469,4.469,4.469a1.978,1.978,0,0,0,2.8-2.8l-4.469-4.469,4.469-4.47a1.978,1.978,0,0,0-2.8-2.8l-4.469,4.469-4.469-4.469a1.977,1.977,0,0,0-2.8,2.8L83,112.837l-4.469,4.469A1.978,1.978,0,0,0,78.529,120.1Zm0,0" transform="translate(-62.534 -84.23)"/><path class="c" d="M1.978,425.951A1.978,1.978,0,1,0,0,423.974,1.981,1.981,0,0,0,1.978,425.951Zm0,0" transform="translate(0 -338.545)"/><path class="c" d="M366.423,70a1.978,1.978,0,1,0,1.978,1.978A1.981,1.981,0,0,0,366.423,70Zm0,0" transform="translate(-292.375 -56.16)"/><path class="d" d="M2544.417-6155.8l-12.66-5.527" transform="translate(-2554.21 6155.625)"/><path class="d" d="M2544.262-6157.862l-7.874-9.3" transform="translate(-2549.21 6149.625)"/><path class="d" d="M2546.684-6156.294l2.18-13.151" transform="translate(-2543.21 6146.625)"/></g></svg>