<svg xmlns="http://www.w3.org/2000/svg" xmlns:xlink="http://www.w3.org/1999/xlink" viewBox="0 0 800 960" preserveAspectRatio="none">
    <defs>
        <style>.a{fill:url(#a);}.b{fill:url(#b);}.c{clip-path:url(#c);}.d{opacity:0.201;}.e,.h{opacity:0.7;}.e{fill:url(#d);}.f,.i,.l{fill:none;}.f{stroke:#a3a0fb;}.f,.g,.i,.j{stroke-width:2px;}.g,.j{fill:#fff;}.g{stroke:#a4a1fb;}.h{fill:url(#f);}.i{stroke:#54d8ff;}.j{stroke:#55d8fe;}.k{stroke:none;}</style>
        <linearGradient id="a" y1="1" x2="1" gradientUnits="objectBoundingBox">
            <stop offset="0" stop-color="#5c6ccd" />
            <stop offset="1" stop-color="#5753b5" />
        </linearGradient>
        <linearGradient id="b" x1="0.897" y1="0.14" x2="0.206" y2="0.877" gradientUnits="objectBoundingBox">
            <stop offset="0" stop-color="#242348" />
            <stop offset="1" stop-color="#5a55aa" />
        </linearGradient>
        <clipPath id="c">
            <rect class="a" width="800" height="960" transform="translate(-25 58)" />
        </clipPath>
        <linearGradient id="d" x1="0.5" x2="0.5" y2="1" gradientUnits="objectBoundingBox">
            <stop offset="0" stop-color="#a7a7ff" />
            <stop offset="1" stop-color="#fff" stop-opacity="0" />
        </linearGradient>
        <linearGradient id="f" x1="0.5" x2="0.5" y2="1" gradientUnits="objectBoundingBox">
            <stop offset="0" stop-color="#54d8ff" />
            <stop offset="1" stop-color="#fff" stop-opacity="0" />
        </linearGradient>
    </defs>
    <rect class="b" width="800" height="960" />
    <g class="c" transform="translate(25 -58)">
        <g class="d" transform="translate(-585.529 331.726)">
            <path class="e" d="M330,764.877V546.706s308.5,143.1,555,152.089c266.539-8.71,312.693-69.952,520.308-152.089,177.416-68.461,354.346-87.251,524.168-82.413s317.013,78.793,517.612,86.372c353.879-30.534,534.429-184.911,558.338-249.388v544.74L330,846.259Z" transform="translate(-317.723 -288.325)" />
            <path class="f" d="M313,493.785S619.512,640.3,861.863,643.452,1197.3,567.846,1382.925,493.98s362.09-86.472,524.554-83.989,320.4,79.889,520.019,84,522.561-133.8,558.472-248.748" transform="translate(-298.268 -234.833)" />
            <g class="g" transform="translate(1072.897 247.907)">
                <circle class="k" cx="12.259" cy="12.259" r="12.259" />
                <circle class="l" cx="12.259" cy="12.259" r="11.259" />
            </g>
            <g class="g" transform="translate(718.407 383.633)">
                <circle class="k" cx="12.259" cy="12.259" r="12.259" />
                <circle class="l" cx="12.259" cy="12.259" r="11.259" />
            </g>
        </g>
        <g class="d" transform="translate(-712.529 564.726)">
            <path class="e" d="M330,764.877V546.706s308.5,143.1,555,152.089c266.539-8.71,312.693-69.952,520.308-152.089,177.416-68.461,354.346-87.251,524.168-82.413s317.013,78.793,517.612,86.372c353.879-30.534,534.429-184.911,558.338-249.388v544.74L330,846.259Z" transform="translate(-317.723 -288.325)" />
            <path class="f" d="M313,493.785S619.512,640.3,861.863,643.452,1197.3,567.846,1382.925,493.98s362.09-86.472,524.554-83.989,320.4,79.889,520.019,84,522.561-133.8,558.472-248.748" transform="translate(-298.268 -234.833)" />
            <g class="g" transform="translate(1072.897 247.907)">
                <circle class="k" cx="12.259" cy="12.259" r="12.259" />
                <circle class="l" cx="12.259" cy="12.259" r="11.259" />
            </g>
        </g>
        <g class="d" transform="translate(-743.926 354.582)">
            <path class="h" d="M330,687.576V354.422s301.107,331.225,548.452,343.69C1154.429,695.3,1156.691,526.16,1399.2,433.564c203.024-72.706,357.942,125.622,527.763,130.459s287.023-135.926,518.71-145.705c300.179,14.727,541.051,202.792,559.742,212.9v137.5L330,768.958Z" transform="translate(-313.715 -344.568)" />
            <path class="i" d="M312.953,279.164S623.431,616.493,866.082,619.648s325.629-198.754,520.459-266.824,363.846,129.84,526.511,132.324,318.406-148.686,518.271-144.577S2859.7,459.03,2986.03,549.234" transform="translate(-298.327 -266.489)" />
            <g class="j" transform="translate(2114.927 61.363)">
                <circle class="k" cx="12.259" cy="12.259" r="12.259" />
                <circle class="l" cx="12.259" cy="12.259" r="11.259" />
            </g>
            <g class="j" transform="translate(1155.767 60.537)">
                <circle class="k" cx="12.259" cy="12.259" r="12.259" />
                <circle class="l" cx="12.259" cy="12.259" r="11.259" />
            </g>
        </g>
        <g class="d" transform="translate(-1046.649 464.919)">
            <path class="h" d="M330,687.576V354.422s301.107,331.225,548.452,343.69C1154.429,695.3,1156.691,526.16,1399.2,433.564c203.024-72.706,357.942,125.622,527.763,130.459s287.023-135.926,518.71-145.705c300.179,14.727,541.051,202.792,559.742,212.9v137.5L330,768.958Z" transform="translate(-314.715 -344.568)" />
            <path class="i" d="M312.953,279.164S623.431,616.493,866.082,619.648s325.629-198.754,520.459-266.824,363.846,129.84,526.511,132.324,318.406-148.686,518.271-144.577S2859.7,459.03,2986.03,549.234" transform="translate(-298.327 -266.489)" />
            <g class="j" transform="translate(1701.637 192.18)">
                <circle class="k" cx="12.259" cy="12.259" r="12.259" />
                <circle class="l" cx="12.259" cy="12.259" r="11.259" />
            </g>
            <g class="j" transform="translate(1073.43 73.636)">
                <circle class="k" cx="12.259" cy="12.259" r="12.259" />
                <circle class="l" cx="12.259" cy="12.259" r="11.259" />
            </g>
        </g>
    </g>
</svg>